<?xml version="1.0" encoding="UTF-8"?>
<svg xmlns="http://www.w3.org/2000/svg" xmlns:xlink="http://www.w3.org/1999/xlink" viewBox="0 0 80 80" width="80px" height="80px">
<g id="surface37954695">
<path style="fill-rule:nonzero;fill:rgb(0%,0%,0%);fill-opacity:1;stroke-width:10;stroke-linecap:butt;stroke-linejoin:round;stroke:rgb(79.215688%,87.450981%,87.450981%);stroke-opacity:1;stroke-miterlimit:10;" d="M 156.040784 85.497629 C 156.040784 124.374117 124.374117 156.040784 85.497629 156.040784 C 46.62114 156.040784 14.963309 124.374117 14.963309 85.497629 C 14.963309 46.62114 46.62114 14.963309 85.497629 14.963309 C 124.374117 14.963309 156.040784 46.62114 156.040784 85.497629 Z M 19.239723 85.497629 C 19.239723 103.840263 26.714611 120.468797 38.801665 132.467495 L 39.102074 132.396811 L 40.551107 133.651461 L 40.5246 134.119746 C 52.346587 145.058176 68.153414 151.76437 85.497629 151.76437 C 95.570174 151.76437 105.12142 149.49363 113.674247 145.455777 L 114.610817 144.245304 L 116.051014 144.280646 C 135.04748 134.367142 148.654251 115.529716 151.28725 93.352447 L 149.864724 93.48498 L 149.670341 93.414296 L 149.025345 93.025531 L 148.300829 91.240746 L 149.290412 89.606167 L 151.198894 89.411784 L 151.393277 89.50014 L 151.623001 89.632673 C 151.702521 88.263161 151.76437 86.884813 151.76437 85.497629 C 151.76437 68.277112 145.155367 52.567476 134.349471 40.780832 L 132.564686 41.045899 L 131.204009 39.711728 L 131.460241 37.829753 C 119.541063 26.325846 103.345471 19.239723 85.497629 19.239723 C 48.944894 19.239723 19.239723 48.944894 19.239723 85.497629 Z M 64.999117 25.813384 L 65.069801 25.884068 L 65.202335 26.043108 L 65.5911 26.688105 L 65.405553 28.587751 L 63.753302 29.58617 L 61.986189 28.852818 L 61.915504 28.764462 L 61.853655 28.693778 L 61.862491 28.684942 L 61.482562 28.137137 L 61.597424 26.228655 L 63.196661 25.168387 Z M 70.804083 32.616769 L 70.936617 32.784645 L 71.307711 33.438477 L 71.042644 35.338123 L 69.363886 36.265858 L 67.605609 35.461821 L 67.473075 35.293945 L 67.110817 34.631278 L 67.393555 32.740467 L 69.072312 31.821568 Z M 76.193778 39.632208 L 76.317476 39.800084 L 76.653228 40.480422 L 76.317476 42.353562 L 74.603376 43.219448 L 72.880441 42.353562 L 72.756743 42.185687 L 72.420992 41.514184 L 72.765579 39.614537 L 74.479679 38.775158 Z M 130.276275 45.384161 L 129.878675 47.257301 L 129.746141 47.425177 L 129.180665 47.928804 L 127.272183 48.079009 L 126.008697 46.629976 L 126.406297 44.765672 L 126.538831 44.597796 L 127.104307 44.094169 L 129.021625 43.9528 Z M 81.203544 47.00107 L 81.318406 47.186617 L 81.601144 47.866955 L 81.132859 49.731259 L 79.365746 50.464611 L 77.722331 49.483864 L 77.598633 49.307152 L 77.315895 48.609143 L 77.78418 46.753674 L 79.551293 46.020322 Z M 123.384534 50.544132 L 124.435966 52.143369 L 123.773299 53.945824 L 123.614259 54.096029 L 122.978098 54.502465 L 121.069616 54.387603 L 120.027019 52.788365 L 120.680851 50.994745 L 120.839891 50.844541 L 121.467216 50.429269 Z M 85.83338 54.5113 L 85.939407 54.696847 L 86.21331 55.403693 L 85.67434 57.24149 L 83.889556 57.921829 L 82.272647 56.896903 L 82.157785 56.711356 L 81.892718 56.013347 L 82.431688 54.166713 L 84.225307 53.486375 Z M 116.899229 56.38444 L 117.844634 58.054362 L 117.067104 59.81264 L 117.058269 59.81264 L 117.005256 59.856818 L 116.961078 59.900995 L 116.793202 60.015858 L 116.121699 60.342774 L 114.239724 59.980516 L 113.400345 58.25758 L 114.283901 56.552316 L 114.34575 56.508138 L 114.442942 56.446289 L 114.451777 56.455125 L 114.999582 56.14588 Z M 109.910296 61.517904 L 110.643648 63.293853 L 109.654065 64.937268 L 109.477354 65.05213 L 108.779344 65.334868 L 106.923875 64.866583 L 106.190523 63.09947 L 107.171271 61.456055 L 107.347982 61.341193 L 108.045992 61.049619 Z M 90.136301 62.286598 L 90.233492 62.480981 L 90.463217 63.196661 L 89.827056 64.999117 L 88.006929 65.573429 L 86.443034 64.460147 L 86.345843 64.265765 L 86.124954 63.55892 L 86.752279 61.747629 L 88.581241 61.173317 Z M 102.426572 65.962193 L 102.965542 67.799991 L 101.825754 69.328544 L 101.631371 69.425735 L 100.906855 69.637789 L 99.113235 68.975121 L 98.56543 67.137324 L 99.714054 65.599935 L 99.899601 65.51158 L 100.632953 65.29069 Z M 94.571755 69.717309 L 94.942848 71.599284 L 93.661691 73.02181 L 93.467309 73.10133 L 92.725121 73.251535 L 92.601424 73.189686 L 91.876907 73.40174 L 90.35719 72.24428 L 90.268834 72.041062 L 90.056781 71.325382 L 90.745955 69.531762 L 91.815058 69.222517 L 91.903414 69.125326 L 92.106632 69.045806 L 92.839984 68.904437 Z M 86.434199 72.853935 L 86.663923 74.753581 L 85.27674 76.078916 L 85.064686 76.140765 L 84.322499 76.220285 L 82.661412 75.274879 L 82.431688 73.375233 L 83.818871 72.049898 L 84.030925 71.988049 L 84.773112 71.899693 Z M 78.049247 75.327893 L 78.208287 77.245211 L 76.785761 78.508696 L 76.573708 78.56171 L 75.822685 78.632394 L 74.205776 77.616304 L 74.0379 75.716658 L 75.469262 74.435501 L 75.681315 74.382487 L 76.423503 74.320638 Z M 69.558269 77.342402 L 69.602446 79.250884 L 68.1004 80.43485 L 67.888347 80.479028 L 67.128488 80.487863 L 65.573429 79.383417 L 65.529251 77.4661 L 67.040132 76.282134 L 67.24335 76.246792 L 68.003209 76.220285 Z M 97.779065 78.225958 L 97.858585 78.429176 L 98.035296 79.153693 L 97.275438 80.91197 L 95.411133 81.362584 L 93.944429 80.125605 L 93.847238 79.931223 L 93.679363 79.197871 L 94.448057 77.439593 L 96.312361 76.997815 Z M 59.476888 77.678153 L 60.961263 78.862119 L 60.90825 80.779437 L 59.344355 81.875047 L 59.123466 81.910389 L 58.372443 81.883883 L 56.879232 80.691081 L 56.932245 78.782599 L 58.504976 77.686989 L 58.71703 77.651647 Z M 50.120024 78.623559 L 50.120024 78.632394 L 50.835705 78.676572 L 52.293574 79.922387 L 52.16104 81.830869 L 50.552967 82.873466 L 50.499954 82.882301 L 50.455776 82.882301 L 50.402762 82.891137 L 50.252558 82.891137 L 49.492699 82.820452 L 48.105515 81.512789 L 48.308733 79.604307 L 49.960984 78.632394 L 50.067011 78.632394 L 50.093518 78.623559 Z M 24.178804 78.994653 L 24.912156 79.180199 L 26.140299 80.646903 L 25.68085 82.511208 L 23.922573 83.262231 L 23.710519 83.253395 L 22.977167 83.067848 L 21.757859 81.601144 L 22.208473 79.73684 L 23.975586 78.985817 Z M 42.247535 79.268555 L 43.599377 80.620397 L 43.316639 82.528879 L 41.637881 83.430106 L 41.425828 83.438942 L 40.68364 83.332915 L 39.331799 81.972238 L 39.614537 80.081427 L 41.284459 79.162528 L 41.505348 79.153693 Z M 32.811151 79.312733 L 33.553339 79.445266 L 34.869838 80.850121 L 34.525251 82.732097 L 32.802316 83.589147 L 32.599098 83.589147 L 31.85691 83.456613 L 30.549247 82.051758 L 30.884998 80.160947 L 32.599098 79.312733 Z M 116.342588 82.926479 L 117.084776 83.041342 L 118.41011 84.428525 L 118.100866 86.319336 L 116.404437 87.202893 L 116.183548 87.202893 L 115.44136 87.079195 L 114.124861 85.700847 L 114.42527 83.8012 L 116.130535 82.926479 Z M 125.319523 83.332915 L 126.044039 83.527298 L 127.210334 85.038179 L 126.706707 86.884813 L 124.921922 87.582822 L 124.709869 87.565151 L 123.985352 87.361933 L 122.810222 85.842216 L 123.322685 83.995583 L 125.107469 83.306409 Z M 108.081334 83.527298 L 109.58338 84.728935 L 109.50386 86.655088 L 107.93113 87.741862 L 107.710241 87.768369 L 106.968053 87.741862 L 105.474843 86.53139 L 105.545527 84.622908 L 107.127093 83.527298 L 107.339147 83.491955 Z M 134.208102 84.614072 L 134.914947 84.887975 L 135.922201 86.53139 L 135.224192 88.307339 L 133.368723 88.80213 L 133.156669 88.766788 L 132.45866 88.48405 L 131.460241 86.858306 L 132.15825 85.073522 L 134.004884 84.569894 Z M 99.528507 85.161877 L 99.758232 85.108864 L 100.765486 86.018927 L 100.889184 86.098447 L 100.889184 86.13379 L 101.180758 86.398856 L 101.260278 86.602075 L 101.401647 87.335426 L 100.562268 89.067197 L 98.680293 89.429455 L 98.521252 89.270415 L 98.48591 89.270415 L 96.913179 88.183641 L 96.851331 86.266323 L 98.353377 85.073522 L 98.556595 85.029344 L 99.316453 85.002837 Z M 142.875791 86.69043 L 143.55613 87.008511 L 144.448522 88.704939 L 143.617979 90.445546 L 141.744839 90.807804 L 141.541621 90.75479 L 140.861283 90.43671 L 139.96889 88.740281 L 140.790598 86.999675 L 142.672573 86.637417 Z M 92.327521 88.32501 L 92.636766 90.206985 L 91.311431 91.594169 L 91.108213 91.673689 L 90.366025 91.788551 L 88.669597 90.91383 L 88.351516 89.014184 L 89.685687 87.635836 L 89.880069 87.565151 L 90.631092 87.441453 Z M 84.066267 91.4528 L 84.596401 93.290598 L 83.456613 94.827986 L 83.262231 94.916342 L 82.537714 95.128395 L 80.75293 94.456892 L 80.205125 92.619095 L 81.362584 91.090542 L 81.548131 91.002186 L 82.272647 90.781297 Z M 104.255534 94.677781 L 104.326219 94.880999 L 104.441081 95.623187 L 103.56636 97.31078 L 101.675549 97.620025 L 100.297201 96.29469 L 100.226517 96.091472 L 100.102819 95.349284 L 100.986375 93.652856 L 102.877186 93.352447 Z M 76.184943 95.455311 L 76.918295 97.222424 L 75.937547 98.857004 L 75.752 98.980702 L 75.062826 99.272275 L 73.207357 98.795155 L 72.474005 97.019206 L 73.454753 95.384627 L 73.631464 95.260929 L 74.329474 94.978191 Z M 68.842588 100.288366 L 69.664295 102.011301 L 68.763068 103.698894 L 68.595192 103.831427 L 67.906018 104.149508 L 66.032878 103.769578 L 65.21117 102.037808 L 66.103562 100.341379 L 66.289109 100.226517 L 66.960612 99.899601 Z M 107.135929 103.027391 L 107.188942 103.230609 L 107.286133 103.981632 L 106.349563 105.651554 L 104.441081 105.890114 L 103.115747 104.511766 L 103.053898 104.308548 L 102.956706 103.56636 L 103.893276 101.896438 L 105.801758 101.657878 Z M 61.888998 105.695732 L 62.852074 107.347982 L 62.118722 109.115096 L 61.950847 109.256465 L 61.30585 109.636394 L 59.397368 109.42434 L 58.434292 107.780925 L 59.176479 106.004976 L 59.344355 105.872443 L 59.980516 105.483678 Z M 109.751256 111.45652 L 109.80427 111.659738 L 109.88379 112.419597 L 108.885371 114.054177 L 106.985724 114.239724 L 105.686896 112.817197 L 105.642718 112.622815 L 105.563198 111.871792 L 106.552782 110.228377 L 108.452428 110.051665 Z M 55.377186 111.650903 L 56.508138 113.188291 L 55.978004 115.026089 L 55.8278 115.185129 L 55.226981 115.635743 L 53.300828 115.635743 L 52.169876 114.098354 L 52.70001 112.260557 L 52.850214 112.110352 L 53.451033 111.650903 Z M 50.685501 119.602912 L 50.279065 121.467216 L 50.146531 121.635092 L 49.581055 122.138719 L 47.663737 122.271253 L 46.417922 120.839891 L 46.815523 118.966751 L 46.948056 118.798875 L 47.513533 118.295248 L 49.43085 118.153879 Z M 112.110352 119.956334 L 112.163366 120.168388 L 112.216379 120.910576 L 111.182618 122.527484 L 109.274136 122.660017 L 108.019485 121.210985 L 107.966472 120.998931 L 107.913459 120.256744 L 108.94722 118.639835 L 110.855702 118.507302 Z M 45.331148 126.450475 L 45.030739 128.350122 L 44.907041 128.517997 L 44.359236 129.039296 L 42.459589 129.286692 L 41.134254 127.908343 L 41.443499 126.008697 L 41.558361 125.849657 L 42.106166 125.319523 L 44.005813 125.080962 Z M 114.222052 128.517997 L 114.275066 128.721215 L 114.310408 129.481074 L 113.232469 131.053805 L 111.315151 131.159832 L 110.104679 129.666621 L 110.060501 129.463403 L 110.025159 128.71238 L 111.094262 127.121978 L 113.01158 127.042458 Z M 116.095192 137.123838 L 116.130535 137.335892 L 116.148206 138.09575 L 115.04376 139.65081 L 113.126442 139.694988 L 111.942476 138.192942 L 111.898299 137.980888 L 111.880628 137.229865 L 112.985073 135.66597 L 114.911227 135.621792 Z M 116.095192 137.123838 " transform="matrix(0.442105,0,0,0.442105,2.212767,2.212767)"/>
<path style=" stroke:none;fill-rule:nonzero;fill:rgb(0%,0%,0%);fill-opacity:1;" d="M 40.011719 8.828125 C 22.824219 8.828125 8.828125 22.824219 8.828125 40.011719 C 8.828125 57.199219 22.824219 71.199219 40.011719 71.199219 C 57.199219 71.199219 71.199219 57.199219 71.199219 40.011719 C 71.199219 22.824219 57.199219 8.828125 40.011719 8.828125 Z M 40.011719 10.71875 C 47.902344 10.71875 55.0625 13.851562 60.332031 18.9375 L 60.21875 19.769531 L 60.820312 20.359375 L 61.609375 20.242188 C 66.386719 25.453125 69.308594 32.398438 69.308594 40.011719 C 69.308594 40.625 69.28125 41.234375 69.246094 41.839844 L 69.144531 41.78125 L 69.058594 41.742188 L 68.214844 41.828125 L 67.777344 42.550781 L 68.097656 43.339844 L 68.382812 43.511719 L 68.46875 43.542969 L 69.097656 43.484375 C 67.933594 53.289062 61.917969 61.617188 53.519531 66 L 52.882812 65.984375 L 52.46875 66.519531 C 48.6875 68.304688 44.464844 69.308594 40.011719 69.308594 C 32.34375 69.308594 25.355469 66.34375 20.128906 61.507812 L 20.140625 61.300781 L 19.5 60.746094 L 19.367188 60.777344 C 14.023438 55.472656 10.71875 48.121094 10.71875 40.011719 C 10.71875 23.851562 23.851562 10.71875 40.011719 10.71875 Z M 30.152344 13.339844 L 29.445312 13.808594 L 29.394531 14.652344 L 29.5625 14.894531 L 29.558594 14.898438 L 29.585938 14.929688 L 29.617188 14.96875 L 30.398438 15.292969 L 31.128906 14.851562 L 31.210938 14.011719 L 31.039062 13.726562 L 30.980469 13.65625 L 30.949219 13.625 Z M 32.75 16.28125 L 32.007812 16.6875 L 31.882812 17.523438 L 32.042969 17.816406 L 32.101562 17.890625 L 32.878906 18.246094 L 33.621094 17.835938 L 33.738281 16.996094 L 33.574219 16.707031 L 33.515625 16.632812 Z M 35.140625 19.355469 L 34.382812 19.726562 L 34.230469 20.566406 L 34.378906 20.863281 L 34.433594 20.9375 L 35.195312 21.320312 L 35.953125 20.9375 L 36.101562 20.109375 L 35.953125 19.808594 L 35.898438 19.734375 Z M 59.253906 21.644531 L 58.40625 21.707031 L 58.15625 21.929688 L 58.097656 22.003906 L 57.921875 22.828125 L 58.480469 23.46875 L 59.324219 23.402344 L 59.574219 23.179688 L 59.632812 23.105469 L 59.808594 22.277344 Z M 37.382812 22.558594 L 36.601562 22.882812 L 36.394531 23.703125 L 36.519531 24.011719 L 36.574219 24.089844 L 37.300781 24.523438 L 38.082031 24.199219 L 38.289062 23.375 L 38.164062 23.074219 L 38.113281 22.992188 Z M 55.914062 24.507812 L 55.636719 24.691406 L 55.566406 24.757812 L 55.277344 25.550781 L 55.738281 26.257812 L 56.582031 26.308594 L 56.863281 26.128906 L 56.933594 26.0625 L 57.226562 25.265625 L 56.761719 24.558594 Z M 39.449219 25.859375 L 38.65625 26.160156 L 38.417969 26.976562 L 38.535156 27.285156 L 38.585938 27.367188 L 39.300781 27.820312 L 40.089844 27.519531 L 40.328125 26.707031 L 40.207031 26.394531 L 40.160156 26.3125 Z M 53.054688 27.035156 L 52.8125 27.171875 L 52.808594 27.167969 L 52.765625 27.195312 L 52.738281 27.214844 L 52.347656 27.96875 L 52.71875 28.730469 L 53.550781 28.890625 L 53.847656 28.746094 L 53.921875 28.695312 L 53.941406 28.675781 L 53.964844 28.65625 L 53.96875 28.65625 L 54.3125 27.878906 L 53.894531 27.140625 Z M 49.980469 29.203125 L 49.671875 29.332031 L 49.59375 29.382812 L 49.160156 30.109375 L 49.484375 30.890625 L 50.304688 31.097656 L 50.613281 30.972656 L 50.691406 30.921875 L 51.128906 30.195312 L 50.804688 29.410156 Z M 41.375 29.257812 L 40.566406 29.511719 L 40.289062 30.3125 L 40.386719 30.625 L 40.429688 30.710938 L 41.121094 31.203125 L 41.925781 30.949219 L 42.207031 30.152344 L 42.105469 29.835938 L 42.0625 29.75 Z M 46.703125 31.078125 L 46.378906 31.175781 L 46.296875 31.214844 L 45.789062 31.894531 L 46.03125 32.707031 L 46.824219 33 L 47.144531 32.90625 L 47.230469 32.863281 L 47.734375 32.1875 L 47.496094 31.375 Z M 43.257812 32.675781 L 42.933594 32.738281 L 42.84375 32.773438 L 42.804688 32.816406 L 42.332031 32.953125 L 42.027344 33.746094 L 42.121094 34.0625 L 42.160156 34.152344 L 42.832031 34.664062 L 43.152344 34.570312 L 43.207031 34.597656 L 43.535156 34.53125 L 43.621094 34.496094 L 44.1875 33.867188 L 44.023438 33.035156 Z M 39.691406 34 L 39.363281 34.039062 L 39.269531 34.066406 L 38.65625 34.652344 L 38.757812 35.492188 L 39.492188 35.910156 L 39.820312 35.875 L 39.914062 35.847656 L 40.527344 35.261719 L 40.425781 34.421875 Z M 36 35.070312 L 35.671875 35.097656 L 35.578125 35.121094 L 34.945312 35.6875 L 35.019531 36.527344 L 35.734375 36.976562 L 36.066406 36.945312 L 36.160156 36.921875 L 36.789062 36.363281 L 36.71875 35.515625 Z M 32.277344 35.910156 L 31.941406 35.921875 L 31.851562 35.9375 L 31.183594 36.460938 L 31.203125 37.308594 L 31.890625 37.796875 L 32.226562 37.792969 L 32.320312 37.773438 L 32.984375 37.25 L 32.964844 36.40625 Z M 44.792969 36.253906 L 43.96875 36.449219 L 43.628906 37.226562 L 43.703125 37.550781 L 43.746094 37.636719 L 44.394531 38.183594 L 45.21875 37.984375 L 45.554688 37.207031 L 45.476562 36.886719 L 45.441406 36.796875 Z M 28.171875 36.542969 L 28.078125 36.558594 L 27.382812 37.042969 L 27.359375 37.886719 L 28.019531 38.414062 L 28.351562 38.425781 L 28.449219 38.410156 L 29.140625 37.925781 L 29.164062 37.078125 L 28.507812 36.554688 Z M 24.359375 36.972656 L 24.347656 36.976562 L 24.300781 36.976562 L 23.570312 37.40625 L 23.480469 38.25 L 24.09375 38.828125 L 24.429688 38.859375 L 24.496094 38.859375 L 24.519531 38.855469 L 24.539062 38.855469 L 24.5625 38.851562 L 25.273438 38.390625 L 25.332031 37.546875 L 24.6875 36.996094 L 24.371094 36.976562 L 24.371094 36.972656 Z M 12.8125 37.132812 L 12.03125 37.464844 L 11.832031 38.289062 L 12.371094 38.9375 L 12.695312 39.019531 L 12.789062 39.023438 L 13.566406 38.691406 L 13.769531 37.867188 L 13.226562 37.21875 L 12.902344 37.136719 Z M 20.5625 37.207031 L 20.464844 37.210938 L 19.726562 37.617188 L 19.601562 38.453125 L 20.199219 39.054688 L 20.527344 39.101562 L 20.621094 39.097656 L 21.363281 38.699219 L 21.488281 37.855469 L 20.890625 37.257812 Z M 16.625 37.277344 L 15.867188 37.652344 L 15.71875 38.488281 L 16.296875 39.109375 L 16.625 39.167969 L 16.714844 39.167969 L 17.476562 38.789062 L 17.628906 37.957031 L 17.046875 37.335938 L 16.71875 37.277344 Z M 53.554688 38.875 L 52.800781 39.261719 L 52.667969 40.101562 L 53.25 40.710938 L 53.578125 40.765625 L 53.675781 40.765625 L 54.425781 40.375 L 54.5625 39.539062 L 53.976562 38.925781 L 53.648438 38.875 Z M 57.523438 39.042969 L 56.734375 39.347656 L 56.507812 40.164062 L 57.027344 40.835938 L 57.347656 40.925781 L 57.441406 40.933594 L 58.230469 40.625 L 58.453125 39.808594 L 57.9375 39.140625 L 57.617188 39.054688 Z M 49.667969 39.125 L 49.574219 39.140625 L 48.875 39.625 L 48.84375 40.46875 L 49.503906 41.003906 L 49.832031 41.015625 L 49.929688 41.003906 L 50.625 40.523438 L 50.660156 39.671875 L 49.996094 39.140625 Z M 61.457031 39.601562 L 60.640625 39.824219 L 60.332031 40.613281 L 60.773438 41.332031 L 61.082031 41.457031 L 61.175781 41.472656 L 61.996094 41.253906 L 62.304688 40.46875 L 61.859375 39.742188 L 61.546875 39.621094 Z M 46.121094 39.792969 L 45.785156 39.804688 L 45.695312 39.824219 L 45.03125 40.351562 L 45.058594 41.199219 L 45.753906 41.679688 L 45.769531 41.679688 L 45.839844 41.75 L 46.671875 41.589844 L 47.042969 40.824219 L 46.980469 40.5 L 46.945312 40.410156 L 46.816406 40.292969 L 46.816406 40.277344 L 46.761719 40.242188 L 46.316406 39.839844 L 46.214844 39.863281 Z M 65.289062 40.515625 L 64.457031 40.675781 L 64.09375 41.445312 L 64.488281 42.195312 L 64.789062 42.335938 L 64.878906 42.359375 L 65.707031 42.199219 L 66.074219 41.429688 L 65.679688 40.679688 L 65.378906 40.539062 Z M 42.277344 40.871094 L 41.949219 40.925781 L 41.863281 40.957031 L 41.273438 41.566406 L 41.414062 42.40625 L 42.164062 42.792969 L 42.492188 42.742188 L 42.582031 42.707031 L 43.167969 42.09375 L 43.03125 41.261719 Z M 38.585938 42.347656 L 38.265625 42.445312 L 38.183594 42.484375 L 37.671875 43.160156 L 37.914062 43.972656 L 38.703125 44.269531 L 39.023438 44.175781 L 39.109375 44.136719 L 39.613281 43.457031 L 39.378906 42.644531 Z M 47.695312 43.484375 L 46.859375 43.617188 L 46.46875 44.367188 L 46.523438 44.695312 L 46.554688 44.785156 L 47.164062 45.371094 L 48 45.234375 L 48.386719 44.488281 L 48.335938 44.160156 L 48.304688 44.070312 Z M 35.074219 44.203125 L 34.765625 44.328125 L 34.6875 44.382812 L 34.253906 45.105469 L 34.578125 45.890625 L 35.398438 46.101562 L 35.703125 45.972656 L 35.785156 45.917969 L 36.21875 45.195312 L 35.894531 44.414062 Z M 31.816406 46.378906 L 31.519531 46.523438 L 31.4375 46.574219 L 31.042969 47.324219 L 31.40625 48.089844 L 32.234375 48.257812 L 32.539062 48.117188 L 32.613281 48.058594 L 33.011719 47.3125 L 32.648438 46.550781 Z M 48.988281 47.15625 L 48.144531 47.261719 L 47.730469 48 L 47.773438 48.328125 L 47.800781 48.417969 L 48.386719 49.027344 L 49.230469 48.921875 L 49.644531 48.183594 L 49.601562 47.851562 L 49.578125 47.761719 Z M 28.730469 48.847656 L 28.449219 49.019531 L 28.375 49.078125 L 28.046875 49.863281 L 28.472656 50.589844 L 29.316406 50.683594 L 29.601562 50.515625 L 29.675781 50.453125 L 30 49.671875 L 29.574219 48.941406 Z M 50.160156 50.867188 L 49.320312 50.945312 L 48.882812 51.671875 L 48.917969 52.003906 L 48.9375 52.089844 L 49.511719 52.71875 L 50.351562 52.636719 L 50.792969 51.914062 L 50.757812 51.578125 L 50.734375 51.488281 Z M 25.84375 51.574219 L 25.578125 51.777344 L 25.511719 51.84375 L 25.277344 52.65625 L 25.777344 53.335938 L 26.628906 53.335938 L 26.894531 53.136719 L 26.960938 53.066406 L 27.195312 52.253906 L 26.695312 51.574219 Z M 24.066406 54.449219 L 23.21875 54.511719 L 22.96875 54.734375 L 22.910156 54.808594 L 22.734375 55.636719 L 23.285156 56.269531 L 24.132812 56.210938 L 24.382812 55.988281 L 24.441406 55.914062 L 24.621094 55.089844 Z M 51.222656 54.605469 L 50.378906 54.664062 L 49.921875 55.378906 L 49.945312 55.707031 L 49.96875 55.800781 L 50.523438 56.441406 L 51.367188 56.382812 L 51.824219 55.667969 L 51.800781 55.339844 L 51.777344 55.246094 Z M 21.667969 57.511719 L 20.828125 57.617188 L 20.585938 57.851562 L 20.535156 57.921875 L 20.398438 58.761719 L 20.984375 59.371094 L 21.824219 59.261719 L 22.066406 59.03125 L 22.121094 58.957031 L 22.253906 58.117188 Z M 52.175781 58.378906 L 51.328125 58.414062 L 50.855469 59.117188 L 50.871094 59.449219 L 50.890625 59.539062 L 51.425781 60.199219 L 52.273438 60.152344 L 52.75 59.457031 L 52.734375 59.121094 L 52.710938 59.03125 Z M 53.015625 62.171875 L 52.164062 62.191406 L 51.675781 62.882812 L 51.683594 63.214844 L 51.703125 63.308594 L 52.226562 63.972656 L 53.074219 63.953125 L 53.5625 63.265625 L 53.554688 62.929688 L 53.539062 62.835938 Z M 53.015625 62.171875 "/>
</g>
</svg>
