<?xml version="1.0" encoding="UTF-8"?>
<svg xmlns="http://www.w3.org/2000/svg" xmlns:xlink="http://www.w3.org/1999/xlink" viewBox="0 0 100 100" width="100px" height="100px">
<g id="surface37161763">
<path style="fill-rule:nonzero;fill:rgb(0%,0%,0%);fill-opacity:1;stroke-width:10;stroke-linecap:butt;stroke-linejoin:round;stroke:rgb(79.215688%,87.450981%,87.450981%);stroke-opacity:1;stroke-miterlimit:10;" d="M 35.928339 34.196568 C 39.497907 34.196568 43.131092 35.327521 46.205869 37.638904 L 85.499396 67.248652 L 124.792923 37.638904 C 127.8677 35.327521 131.500884 34.196568 135.070453 34.196568 L 135.091658 34.196568 C 144.513905 34.196568 152.190245 41.872908 152.190245 51.302223 L 152.190245 126.538831 C 152.190245 132.186524 147.574545 136.802224 141.926852 136.802224 L 119.696569 136.802224 C 118.756465 136.802224 117.993072 136.031762 117.993072 135.091658 L 117.993072 86.382952 L 86.510185 109.115096 C 86.199173 109.341286 85.859887 109.440244 85.499396 109.440244 C 85.138905 109.440244 84.785482 109.320081 84.47447 109.100959 L 53.012789 85.654902 L 53.012789 135.091658 C 53.012789 136.031762 52.242327 136.802224 51.302223 136.802224 L 29.07194 136.802224 C 23.424247 136.802224 18.808547 132.186524 18.808547 126.538831 L 18.808547 51.302223 C 18.808547 41.872908 26.484887 34.196568 35.907134 34.196568 Z M 22.229678 51.302223 L 22.229678 59.508696 L 49.591658 79.901182 L 49.591658 44.474098 L 44.148949 40.374396 C 41.682059 38.515393 38.783994 37.617699 35.928339 37.617699 L 35.907134 37.617699 C 28.336821 37.617699 22.229678 43.724842 22.229678 51.302223 Z M 126.849843 40.374396 L 121.407134 44.474098 L 121.407134 79.901182 L 148.769114 59.508696 L 148.769114 51.302223 C 148.769114 43.724842 142.669039 37.617699 135.091658 37.617699 L 135.070453 37.617699 C 132.214798 37.617699 129.316733 38.515393 126.849843 40.374396 Z M 51.302223 80.919039 L 85.513533 105.609143 L 119.696569 80.919039 L 119.696569 45.760556 L 86.743444 70.59203 C 86.418295 70.931315 85.972982 71.122164 85.506464 71.115095 C 85.471122 71.115095 85.442848 71.115095 85.414574 71.115095 C 84.969262 71.09389 84.552223 70.91011 84.241211 70.584961 L 51.302223 45.760556 Z M 114.536599 57.494187 C 114.649694 57.84761 114.52953 58.229306 114.232655 58.448428 L 104.110631 66.075289 C 103.863235 66.259068 103.545155 66.294411 103.262417 66.174247 C 102.979679 66.061152 102.781762 65.799619 102.74642 65.495676 C 102.704009 65.191732 102.831241 64.887789 103.078637 64.704009 L 113.200661 57.084217 C 113.349099 56.964053 113.539947 56.900437 113.730795 56.900437 C 114.098354 56.900437 114.423503 57.140765 114.536599 57.494187 Z M 22.229678 126.538831 C 22.229678 130.33459 25.276181 133.381093 29.07194 133.381093 L 49.591658 133.381093 L 49.591658 82.035854 L 22.229678 61.643369 Z M 121.407134 82.035854 L 121.407134 82.933548 C 121.414203 82.954753 121.414203 82.975958 121.407134 82.997164 L 121.407134 133.381093 L 141.926852 133.381093 C 145.729679 133.381093 148.769114 130.33459 148.769114 126.538831 L 148.769114 61.643369 Z M 101.686152 67.177967 C 101.799247 67.53139 101.672015 67.913086 101.37514 68.132208 L 98.335706 70.422387 C 98.08831 70.606167 97.763161 70.655646 97.480423 70.535482 C 97.197685 70.415318 96.999768 70.153786 96.964426 69.842774 C 96.929084 69.53883 97.056316 69.234887 97.303711 69.051107 L 100.343146 66.767997 C 100.498652 66.647833 100.682432 66.584217 100.87328 66.584217 C 101.247908 66.591286 101.573057 66.831613 101.686152 67.177967 Z M 73.186152 68.676479 L 76.692104 71.313012 C 76.9395 71.496792 77.066732 71.793667 77.03139 72.104679 C 76.996048 72.408622 76.798131 72.670155 76.515393 72.790318 C 76.232655 72.910482 75.907506 72.868071 75.66011 72.677223 L 72.161226 70.04069 C 71.87142 69.821568 71.744187 69.44694 71.850214 69.100586 C 71.956241 68.754232 72.267253 68.513905 72.634812 68.499768 C 72.832729 68.485631 73.030646 68.549247 73.186152 68.676479 Z M 95.911226 71.525065 C 96.024322 71.878488 95.897089 72.260185 95.600214 72.479307 L 89.895973 76.776926 C 89.655646 76.981911 89.31636 77.038458 89.026554 76.918295 C 88.729679 76.798131 88.524694 76.52953 88.489351 76.211449 C 88.461077 75.900438 88.602447 75.589426 88.863979 75.412714 L 94.575289 71.115095 C 94.723726 70.994932 94.914575 70.931315 95.105423 70.938384 C 95.472982 70.938384 95.798131 71.178711 95.911226 71.525065 Z M 79.420527 73.369932 L 84.403786 77.12328 C 84.665319 77.299991 84.813756 77.611003 84.778414 77.922015 C 84.75014 78.240095 84.545155 78.508696 84.24828 78.62886 C 83.951405 78.749024 83.619188 78.692476 83.37886 78.487491 L 78.395601 74.734143 C 78.098726 74.522089 77.971494 74.140393 78.077521 73.794039 C 78.183548 73.447685 78.501628 73.200289 78.862119 73.186152 C 79.067104 73.179083 79.265021 73.242699 79.420527 73.369932 Z M 28.817476 75.47633 C 28.98005 75.638905 29.07194 75.865095 29.07194 76.098354 L 29.07194 88.065244 C 29.07194 88.376256 28.909366 88.658994 28.647833 88.8145 C 28.379232 88.970006 28.047015 88.970006 27.785482 88.8145 C 27.516881 88.658994 27.354306 88.376256 27.361375 88.065244 L 27.361375 76.098354 C 27.354306 75.865095 27.446196 75.645973 27.601702 75.483399 C 27.757208 75.320824 27.97633 75.228935 28.20252 75.228935 C 28.435779 75.221866 28.654901 75.313756 28.817476 75.47633 Z M 28.817476 92.574917 C 28.98005 92.737491 29.07194 92.963682 29.07194 93.196941 L 29.07194 94.907506 C 29.07194 95.21145 28.909366 95.501256 28.647833 95.656762 C 28.379232 95.812268 28.047015 95.812268 27.785482 95.656762 C 27.516881 95.501256 27.354306 95.21145 27.361375 94.907506 L 27.361375 93.196941 C 27.354306 92.97075 27.446196 92.751628 27.601702 92.589054 C 27.757208 92.426479 27.97633 92.327521 28.20252 92.327521 C 28.435779 92.320453 28.654901 92.412342 28.817476 92.574917 Z M 28.817476 99.417179 C 28.98005 99.579753 29.07194 99.805944 29.07194 100.032134 L 29.07194 103.453265 C 29.07194 103.764277 28.909366 104.047015 28.647833 104.202521 C 28.379232 104.358027 28.047015 104.358027 27.785482 104.202521 C 27.516881 104.047015 27.354306 103.764277 27.361375 103.453265 L 27.361375 100.032134 C 27.354306 99.805944 27.446196 99.586822 27.601702 99.424247 C 27.757208 99.261673 27.97633 99.169783 28.20252 99.169783 C 28.435779 99.162714 28.654901 99.254604 28.817476 99.417179 Z M 28.817476 107.970006 C 28.98005 108.132581 29.07194 108.351703 29.07194 108.584962 L 29.07194 125.683548 C 29.07194 126.164203 29.446568 126.538831 29.927223 126.538831 L 41.894113 126.538831 C 42.205125 126.538831 42.487863 126.694337 42.643369 126.962938 C 42.798875 127.231539 42.798875 127.556688 42.643369 127.825289 C 42.487863 128.09389 42.205125 128.256465 41.894113 128.249396 L 29.927223 128.249396 C 28.520601 128.249396 27.361375 127.09017 27.361375 125.683548 L 27.361375 108.584962 C 27.354306 108.358771 27.446196 108.139649 27.601702 107.977075 C 27.757208 107.8145 27.97633 107.72261 28.20252 107.715542 C 28.435779 107.715542 28.654901 107.800363 28.817476 107.970006 Z M 28.817476 107.970006 " transform="matrix(0.552632,0,0,0.552632,2.765959,2.765959)"/>
<path style=" stroke:none;fill-rule:nonzero;fill:rgb(0%,0%,0%);fill-opacity:1;" d="M 22.609375 21.664062 C 17.402344 21.664062 13.160156 25.90625 13.160156 31.117188 L 13.160156 72.695312 C 13.160156 75.816406 15.710938 78.367188 18.832031 78.367188 L 31.117188 78.367188 C 31.636719 78.367188 32.0625 77.941406 32.0625 77.421875 L 32.0625 50.101562 L 49.449219 63.058594 C 49.621094 63.179688 49.816406 63.246094 50.015625 63.246094 C 50.214844 63.246094 50.402344 63.191406 50.574219 63.066406 L 67.972656 50.503906 L 67.972656 77.421875 C 67.972656 77.941406 68.394531 78.367188 68.914062 78.367188 L 81.199219 78.367188 C 84.320312 78.367188 86.871094 75.816406 86.871094 72.695312 L 86.871094 31.117188 C 86.871094 25.90625 82.628906 21.664062 77.421875 21.664062 L 77.410156 21.664062 C 75.4375 21.664062 73.429688 22.289062 71.730469 23.566406 L 50.015625 39.929688 L 28.300781 23.566406 C 26.601562 22.289062 24.59375 21.664062 22.621094 21.664062 Z M 22.609375 23.554688 L 22.621094 23.554688 C 24.199219 23.554688 25.800781 24.050781 27.164062 25.078125 L 30.171875 27.34375 L 30.171875 46.921875 L 15.050781 35.652344 L 15.050781 31.117188 C 15.050781 26.929688 18.425781 23.554688 22.609375 23.554688 Z M 77.410156 23.554688 L 77.421875 23.554688 C 81.609375 23.554688 84.980469 26.929688 84.980469 31.117188 L 84.980469 35.652344 L 69.859375 46.921875 L 69.859375 27.34375 L 72.867188 25.078125 C 74.230469 24.050781 75.832031 23.554688 77.410156 23.554688 Z M 31.117188 28.054688 L 49.320312 41.773438 C 49.492188 41.953125 49.722656 42.054688 49.96875 42.066406 C 49.984375 42.066406 50 42.066406 50.019531 42.066406 C 50.277344 42.070312 50.523438 41.964844 50.703125 41.777344 L 68.914062 28.054688 L 68.914062 47.484375 L 50.023438 61.128906 L 31.117188 47.484375 Z M 65.617188 34.210938 C 65.511719 34.210938 65.40625 34.246094 65.324219 34.3125 L 59.730469 38.523438 C 59.59375 38.625 59.523438 38.792969 59.546875 38.960938 C 59.566406 39.128906 59.675781 39.273438 59.832031 39.335938 C 59.988281 39.402344 60.164062 39.382812 60.300781 39.28125 L 65.894531 35.066406 C 66.058594 34.945312 66.125 34.734375 66.0625 34.539062 C 66 34.34375 65.820312 34.210938 65.617188 34.210938 Z M 15.050781 36.832031 L 30.171875 48.101562 L 30.171875 76.476562 L 18.832031 76.476562 C 16.734375 76.476562 15.050781 74.792969 15.050781 72.695312 Z M 84.980469 36.832031 L 84.980469 72.695312 C 84.980469 74.792969 83.300781 76.476562 81.199219 76.476562 L 69.859375 76.476562 L 69.859375 48.632812 C 69.863281 48.621094 69.863281 48.609375 69.859375 48.597656 L 69.859375 48.101562 Z M 58.511719 39.5625 C 58.40625 39.5625 58.304688 39.597656 58.21875 39.664062 L 56.539062 40.925781 C 56.402344 41.027344 56.332031 41.195312 56.351562 41.363281 C 56.371094 41.535156 56.480469 41.679688 56.636719 41.746094 C 56.792969 41.8125 56.972656 41.785156 57.109375 41.683594 L 58.789062 40.417969 C 58.953125 40.296875 59.023438 40.085938 58.960938 39.890625 C 58.898438 39.699219 58.71875 39.566406 58.511719 39.5625 Z M 42.90625 40.621094 C 42.703125 40.628906 42.53125 40.761719 42.472656 40.953125 C 42.414062 41.144531 42.484375 41.351562 42.644531 41.472656 L 44.578125 42.929688 C 44.714844 43.035156 44.894531 43.058594 45.050781 42.992188 C 45.207031 42.925781 45.316406 42.78125 45.335938 42.613281 C 45.355469 42.441406 45.285156 42.277344 45.148438 42.175781 L 43.210938 40.71875 C 43.125 40.648438 43.015625 40.613281 42.90625 40.621094 Z M 55.324219 41.96875 C 55.21875 41.964844 55.113281 42 55.03125 42.066406 L 51.875 44.441406 C 51.730469 44.539062 51.652344 44.710938 51.667969 44.882812 C 51.6875 45.058594 51.800781 45.207031 51.964844 45.273438 C 52.125 45.339844 52.3125 45.308594 52.445312 45.195312 L 55.597656 42.820312 C 55.761719 42.699219 55.832031 42.488281 55.769531 42.292969 C 55.707031 42.101562 55.527344 41.96875 55.324219 41.96875 Z M 46.347656 43.210938 C 46.148438 43.21875 45.972656 43.355469 45.914062 43.546875 C 45.855469 43.738281 45.925781 43.949219 46.089844 44.066406 L 48.84375 46.140625 C 48.976562 46.253906 49.160156 46.285156 49.324219 46.21875 C 49.488281 46.152344 49.601562 46.003906 49.617188 45.828125 C 49.636719 45.65625 49.554688 45.484375 49.410156 45.386719 L 46.65625 43.3125 C 46.570312 43.242188 46.460938 43.207031 46.347656 43.210938 Z M 18.351562 44.339844 C 18.226562 44.339844 18.105469 44.390625 18.019531 44.480469 C 17.933594 44.570312 17.882812 44.691406 17.886719 44.820312 L 17.886719 51.433594 C 17.882812 51.605469 17.972656 51.761719 18.121094 51.847656 C 18.265625 51.933594 18.449219 51.933594 18.597656 51.847656 C 18.742188 51.761719 18.832031 51.605469 18.832031 51.433594 L 18.832031 44.820312 C 18.832031 44.691406 18.78125 44.566406 18.691406 44.476562 C 18.601562 44.386719 18.480469 44.335938 18.351562 44.339844 Z M 18.351562 53.789062 C 18.226562 53.789062 18.105469 53.84375 18.019531 53.933594 C 17.933594 54.023438 17.882812 54.144531 17.886719 54.269531 L 17.886719 55.214844 C 17.882812 55.382812 17.972656 55.542969 18.121094 55.628906 C 18.265625 55.714844 18.449219 55.714844 18.597656 55.628906 C 18.742188 55.542969 18.832031 55.382812 18.832031 55.214844 L 18.832031 54.269531 C 18.832031 54.140625 18.78125 54.015625 18.691406 53.925781 C 18.601562 53.835938 18.480469 53.785156 18.351562 53.789062 Z M 18.351562 57.570312 C 18.226562 57.570312 18.105469 57.621094 18.019531 57.710938 C 17.933594 57.800781 17.882812 57.921875 17.886719 58.046875 L 17.886719 59.9375 C 17.882812 60.109375 17.972656 60.265625 18.121094 60.351562 C 18.265625 60.4375 18.449219 60.4375 18.597656 60.351562 C 18.742188 60.265625 18.832031 60.109375 18.832031 59.9375 L 18.832031 58.046875 C 18.832031 57.921875 18.78125 57.796875 18.691406 57.707031 C 18.601562 57.617188 18.480469 57.566406 18.351562 57.570312 Z M 18.351562 62.292969 C 18.226562 62.296875 18.105469 62.347656 18.019531 62.4375 C 17.933594 62.527344 17.882812 62.648438 17.886719 62.773438 L 17.886719 72.222656 C 17.886719 73 18.527344 73.640625 19.304688 73.640625 L 25.917969 73.640625 C 26.089844 73.644531 26.246094 73.554688 26.332031 73.40625 C 26.417969 73.257812 26.417969 73.078125 26.332031 72.929688 C 26.246094 72.78125 26.089844 72.695312 25.917969 72.695312 L 19.304688 72.695312 C 19.039062 72.695312 18.832031 72.488281 18.832031 72.222656 L 18.832031 62.773438 C 18.832031 62.644531 18.78125 62.523438 18.691406 62.433594 C 18.601562 62.339844 18.480469 62.292969 18.351562 62.292969 Z M 18.351562 62.292969 "/>
</g>
</svg>
