<?xml version="1.0" encoding="UTF-8"?>
<svg xmlns="http://www.w3.org/2000/svg" xmlns:xlink="http://www.w3.org/1999/xlink" viewBox="0 0 64 64" width="64px" height="64px">
<g id="surface37951787">
<path style="fill-rule:nonzero;fill:rgb(0%,0%,0%);fill-opacity:1;stroke-width:10;stroke-linecap:butt;stroke-linejoin:round;stroke:rgb(79.215688%,87.450981%,87.450981%);stroke-opacity:1;stroke-miterlimit:10;" d="M 136.26458 16.034621 C 146.580102 16.034621 154.97389 24.417364 154.97389 34.732887 L 154.97389 136.26458 C 154.97389 146.580102 146.580102 154.97389 136.26458 154.97389 L 34.732887 154.97389 C 24.417364 154.97389 16.034621 146.580102 16.034621 136.26458 L 16.034621 34.732887 C 16.034621 24.417364 24.417364 16.034621 34.732887 16.034621 Z M 21.380139 34.732887 L 21.380139 58.77667 L 58.77667 58.77667 C 58.953381 58.77667 59.328893 58.809803 59.362026 58.77667 C 66.121234 52.172084 75.332311 48.09668 85.504255 48.09668 C 95.620978 48.09668 104.821011 52.138951 111.547085 58.699359 C 111.613352 58.765625 112.05513 58.77667 112.220797 58.77667 L 149.628372 58.77667 L 149.628372 34.732887 C 149.628372 27.366234 143.631232 21.380139 136.26458 21.380139 L 42.751163 21.380139 L 42.751163 29.38737 C 42.751163 30.867327 41.547317 32.060128 40.078404 32.060128 C 38.609491 32.060128 37.405646 30.867327 37.405646 29.38737 L 37.405646 21.380139 L 34.732887 21.380139 C 27.366234 21.380139 21.380139 27.366234 21.380139 34.732887 Z M 136.26458 26.714611 C 140.682362 26.714611 144.282855 30.315104 144.282855 34.732887 L 144.282855 40.078404 C 144.282855 44.496187 140.682362 48.09668 136.26458 48.09668 L 125.573545 48.09668 C 121.166807 48.09668 117.566314 44.496187 117.566314 40.078404 L 117.566314 34.732887 C 117.566314 30.315104 121.166807 26.714611 125.573545 26.714611 Z M 122.900787 34.732887 L 122.900787 40.078404 C 122.900787 41.547317 124.104632 42.751163 125.573545 42.751163 L 136.26458 42.751163 C 137.733492 42.751163 138.937338 41.547317 138.937338 40.078404 L 138.937338 34.732887 C 138.937338 33.263974 137.733492 32.060128 136.26458 32.060128 L 125.573545 32.060128 C 124.104632 32.060128 122.900787 33.263974 122.900787 34.732887 Z M 42.751163 40.078404 L 42.751163 50.769438 C 42.751163 52.249396 41.547317 53.442197 40.078404 53.442197 C 38.609491 53.442197 37.405646 52.249396 37.405646 50.769438 L 37.405646 40.078404 C 37.405646 38.598447 38.609491 37.405646 40.078404 37.405646 C 41.547317 37.405646 42.751163 38.598447 42.751163 40.078404 Z M 53.442197 85.504255 C 53.442197 103.175387 67.82208 117.566314 85.504255 117.566314 C 103.175387 117.566314 117.566314 103.175387 117.566314 85.504255 C 117.566314 67.82208 103.175387 53.442197 85.504255 53.442197 C 67.82208 53.442197 53.442197 67.82208 53.442197 85.504255 Z M 112.220797 85.504255 C 112.220797 100.237561 100.237561 112.220797 85.504255 112.220797 C 70.759905 112.220797 58.77667 100.237561 58.77667 85.504255 C 58.77667 70.759905 70.759905 58.77667 85.504255 58.77667 C 100.237561 58.77667 112.220797 70.759905 112.220797 85.504255 Z M 21.380139 136.26458 C 21.380139 143.631232 27.366234 149.628372 34.732887 149.628372 L 136.26458 149.628372 C 143.631232 149.628372 149.628372 143.631232 149.628372 136.26458 L 149.628372 64.122187 L 116.152623 64.122187 C 120.404739 70.185594 122.900787 77.552246 122.900787 85.504255 C 122.900787 106.124257 106.124257 122.900787 85.504255 122.900787 C 64.87321 122.900787 48.09668 106.124257 48.09668 85.504255 C 48.09668 77.552246 50.603772 70.185594 54.844843 64.122187 L 21.380139 64.122187 Z M 64.122187 85.504255 C 64.122187 97.288691 73.71982 106.87528 85.504255 106.87528 C 97.288691 106.87528 106.87528 97.288691 106.87528 85.504255 C 106.87528 73.71982 97.288691 64.122187 85.504255 64.122187 C 73.71982 64.122187 64.122187 73.71982 64.122187 85.504255 Z M 34.732887 133.591821 L 34.732887 138.937338 C 34.732887 140.417295 33.529041 141.610097 32.060128 141.610097 C 30.591216 141.610097 29.38737 140.417295 29.38737 138.937338 L 29.38737 133.591821 C 29.38737 132.111864 30.591216 130.919062 32.060128 130.919062 C 33.529041 130.919062 34.732887 132.111864 34.732887 133.591821 Z M 48.09668 133.591821 L 48.09668 138.937338 C 48.09668 140.417295 46.892834 141.610097 45.423921 141.610097 C 43.955009 141.610097 42.751163 140.417295 42.751163 138.937338 L 42.751163 133.591821 C 42.751163 132.111864 43.955009 130.919062 45.423921 130.919062 C 46.892834 130.919062 48.09668 132.111864 48.09668 133.591821 Z M 61.449428 133.591821 L 61.449428 138.937338 C 61.449428 140.417295 60.256627 141.610097 58.77667 141.610097 C 57.307757 141.610097 56.103911 140.417295 56.103911 138.937338 L 56.103911 133.591821 C 56.103911 132.111864 57.307757 130.919062 58.77667 130.919062 C 60.256627 130.919062 61.449428 132.111864 61.449428 133.591821 Z M 74.813221 133.591821 L 74.813221 138.937338 C 74.813221 140.417295 73.609375 141.610097 72.140463 141.610097 C 70.67155 141.610097 69.467704 140.417295 69.467704 138.937338 L 69.467704 133.591821 C 69.467704 132.111864 70.67155 130.919062 72.140463 130.919062 C 73.609375 130.919062 74.813221 132.111864 74.813221 133.591821 Z M 88.177014 133.591821 L 88.177014 138.937338 C 88.177014 140.417295 86.973168 141.610097 85.504255 141.610097 C 84.024298 141.610097 82.831497 140.417295 82.831497 138.937338 L 82.831497 133.591821 C 82.831497 132.111864 84.024298 130.919062 85.504255 130.919062 C 86.973168 130.919062 88.177014 132.111864 88.177014 133.591821 Z M 101.529762 133.591821 L 101.529762 138.937338 C 101.529762 140.417295 100.325917 141.610097 98.857004 141.610097 C 97.388091 141.610097 96.184245 140.417295 96.184245 138.937338 L 96.184245 133.591821 C 96.184245 132.111864 97.388091 130.919062 98.857004 130.919062 C 100.325917 130.919062 101.529762 132.111864 101.529762 133.591821 Z M 114.893555 133.591821 L 114.893555 138.937338 C 114.893555 140.417295 113.68971 141.610097 112.220797 141.610097 C 110.751884 141.610097 109.548038 140.417295 109.548038 138.937338 L 109.548038 133.591821 C 109.548038 132.111864 110.751884 130.919062 112.220797 130.919062 C 113.68971 130.919062 114.893555 132.111864 114.893555 133.591821 Z M 128.246304 133.591821 L 128.246304 138.937338 C 128.246304 140.417295 127.053502 141.610097 125.573545 141.610097 C 124.104632 141.610097 122.900787 140.417295 122.900787 138.937338 L 122.900787 133.591821 C 122.900787 132.111864 124.104632 130.919062 125.573545 130.919062 C 127.053502 130.919062 128.246304 132.111864 128.246304 133.591821 Z M 141.610097 133.591821 L 141.610097 138.937338 C 141.610097 140.417295 140.406251 141.610097 138.937338 141.610097 C 137.468425 141.610097 136.26458 140.417295 136.26458 138.937338 L 136.26458 133.591821 C 136.26458 132.111864 137.468425 130.919062 138.937338 130.919062 C 140.406251 130.919062 141.610097 132.111864 141.610097 133.591821 Z M 141.610097 133.591821 " transform="matrix(0.353684,0,0,0.353684,1.770214,1.770214)"/>
<path style=" stroke:none;fill-rule:nonzero;fill:rgb(0%,0%,0%);fill-opacity:1;" d="M 14.054688 7.441406 C 10.40625 7.441406 7.441406 10.40625 7.441406 14.054688 L 7.441406 49.964844 C 7.441406 53.613281 10.40625 56.582031 14.054688 56.582031 L 49.964844 56.582031 C 53.613281 56.582031 56.582031 53.613281 56.582031 49.964844 L 56.582031 14.054688 C 56.582031 10.40625 53.613281 7.441406 49.964844 7.441406 Z M 14.054688 9.332031 L 15 9.332031 L 15 12.164062 C 15 12.6875 15.425781 13.109375 15.945312 13.109375 C 16.464844 13.109375 16.890625 12.6875 16.890625 12.164062 L 16.890625 9.332031 L 49.964844 9.332031 C 52.570312 9.332031 54.691406 11.449219 54.691406 14.054688 L 54.691406 22.558594 L 41.460938 22.558594 C 41.402344 22.558594 41.246094 22.554688 41.222656 22.53125 C 38.84375 20.210938 35.589844 18.78125 32.011719 18.78125 C 28.414062 18.78125 25.15625 20.222656 22.765625 22.558594 C 22.757812 22.570312 22.621094 22.558594 22.558594 22.558594 L 9.332031 22.558594 L 9.332031 14.054688 C 9.332031 11.449219 11.449219 9.332031 14.054688 9.332031 Z M 46.183594 11.21875 C 44.625 11.21875 43.351562 12.492188 43.351562 14.054688 L 43.351562 15.945312 C 43.351562 17.507812 44.625 18.78125 46.183594 18.78125 L 49.964844 18.78125 C 51.527344 18.78125 52.800781 17.507812 52.800781 15.945312 L 52.800781 14.054688 C 52.800781 12.492188 51.527344 11.21875 49.964844 11.21875 Z M 46.183594 13.109375 L 49.964844 13.109375 C 50.484375 13.109375 50.910156 13.535156 50.910156 14.054688 L 50.910156 15.945312 C 50.910156 16.464844 50.484375 16.890625 49.964844 16.890625 L 46.183594 16.890625 C 45.664062 16.890625 45.238281 16.464844 45.238281 15.945312 L 45.238281 14.054688 C 45.238281 13.535156 45.664062 13.109375 46.183594 13.109375 Z M 15.945312 15 C 15.425781 15 15 15.421875 15 15.945312 L 15 19.726562 C 15 20.25 15.425781 20.671875 15.945312 20.671875 C 16.464844 20.671875 16.890625 20.25 16.890625 19.726562 L 16.890625 15.945312 C 16.890625 15.421875 16.464844 15 15.945312 15 Z M 32.011719 20.671875 C 38.261719 20.671875 43.351562 25.757812 43.351562 32.011719 C 43.351562 38.261719 38.261719 43.351562 32.011719 43.351562 C 25.757812 43.351562 20.671875 38.261719 20.671875 32.011719 C 20.671875 25.757812 25.757812 20.671875 32.011719 20.671875 Z M 32.011719 22.558594 C 26.796875 22.558594 22.558594 26.796875 22.558594 32.011719 C 22.558594 37.222656 26.796875 41.460938 32.011719 41.460938 C 37.222656 41.460938 41.460938 37.222656 41.460938 32.011719 C 41.460938 26.796875 37.222656 22.558594 32.011719 22.558594 Z M 9.332031 24.449219 L 21.167969 24.449219 C 19.667969 26.59375 18.78125 29.199219 18.78125 32.011719 C 18.78125 39.304688 24.714844 45.238281 32.011719 45.238281 C 39.304688 45.238281 45.238281 39.304688 45.238281 32.011719 C 45.238281 29.199219 44.355469 26.59375 42.851562 24.449219 L 54.691406 24.449219 L 54.691406 49.964844 C 54.691406 52.570312 52.570312 54.691406 49.964844 54.691406 L 14.054688 54.691406 C 11.449219 54.691406 9.332031 52.570312 9.332031 49.964844 Z M 32.011719 24.449219 C 36.179688 24.449219 39.570312 27.84375 39.570312 32.011719 C 39.570312 36.179688 36.179688 39.570312 32.011719 39.570312 C 27.84375 39.570312 24.449219 36.179688 24.449219 32.011719 C 24.449219 27.84375 27.84375 24.449219 32.011719 24.449219 Z M 13.109375 48.074219 C 12.589844 48.074219 12.164062 48.496094 12.164062 49.019531 L 12.164062 50.910156 C 12.164062 51.433594 12.589844 51.855469 13.109375 51.855469 C 13.628906 51.855469 14.054688 51.433594 14.054688 50.910156 L 14.054688 49.019531 C 14.054688 48.496094 13.628906 48.074219 13.109375 48.074219 Z M 17.835938 48.074219 C 17.316406 48.074219 16.890625 48.496094 16.890625 49.019531 L 16.890625 50.910156 C 16.890625 51.433594 17.316406 51.855469 17.835938 51.855469 C 18.355469 51.855469 18.78125 51.433594 18.78125 50.910156 L 18.78125 49.019531 C 18.78125 48.496094 18.355469 48.074219 17.835938 48.074219 Z M 22.558594 48.074219 C 22.039062 48.074219 21.613281 48.496094 21.613281 49.019531 L 21.613281 50.910156 C 21.613281 51.433594 22.039062 51.855469 22.558594 51.855469 C 23.082031 51.855469 23.503906 51.433594 23.503906 50.910156 L 23.503906 49.019531 C 23.503906 48.496094 23.082031 48.074219 22.558594 48.074219 Z M 27.285156 48.074219 C 26.765625 48.074219 26.339844 48.496094 26.339844 49.019531 L 26.339844 50.910156 C 26.339844 51.433594 26.765625 51.855469 27.285156 51.855469 C 27.804688 51.855469 28.230469 51.433594 28.230469 50.910156 L 28.230469 49.019531 C 28.230469 48.496094 27.804688 48.074219 27.285156 48.074219 Z M 32.011719 48.074219 C 31.488281 48.074219 31.066406 48.496094 31.066406 49.019531 L 31.066406 50.910156 C 31.066406 51.433594 31.488281 51.855469 32.011719 51.855469 C 32.53125 51.855469 32.957031 51.433594 32.957031 50.910156 L 32.957031 49.019531 C 32.957031 48.496094 32.53125 48.074219 32.011719 48.074219 Z M 36.734375 48.074219 C 36.214844 48.074219 35.789062 48.496094 35.789062 49.019531 L 35.789062 50.910156 C 35.789062 51.433594 36.214844 51.855469 36.734375 51.855469 C 37.253906 51.855469 37.679688 51.433594 37.679688 50.910156 L 37.679688 49.019531 C 37.679688 48.496094 37.253906 48.074219 36.734375 48.074219 Z M 41.460938 48.074219 C 40.941406 48.074219 40.515625 48.496094 40.515625 49.019531 L 40.515625 50.910156 C 40.515625 51.433594 40.941406 51.855469 41.460938 51.855469 C 41.980469 51.855469 42.40625 51.433594 42.40625 50.910156 L 42.40625 49.019531 C 42.40625 48.496094 41.980469 48.074219 41.460938 48.074219 Z M 46.183594 48.074219 C 45.664062 48.074219 45.238281 48.496094 45.238281 49.019531 L 45.238281 50.910156 C 45.238281 51.433594 45.664062 51.855469 46.183594 51.855469 C 46.707031 51.855469 47.128906 51.433594 47.128906 50.910156 L 47.128906 49.019531 C 47.128906 48.496094 46.707031 48.074219 46.183594 48.074219 Z M 50.910156 48.074219 C 50.390625 48.074219 49.964844 48.496094 49.964844 49.019531 L 49.964844 50.910156 C 49.964844 51.433594 50.390625 51.855469 50.910156 51.855469 C 51.429688 51.855469 51.855469 51.433594 51.855469 50.910156 L 51.855469 49.019531 C 51.855469 48.496094 51.429688 48.074219 50.910156 48.074219 Z M 50.910156 48.074219 "/>
</g>
</svg>
