<?xml version="1.0" encoding="UTF-8"?>
<svg xmlns="http://www.w3.org/2000/svg" xmlns:xlink="http://www.w3.org/1999/xlink" viewBox="0 0 64 64" width="64px" height="64px">
<g id="surface37949107">
<path style="fill-rule:nonzero;fill:rgb(0%,0%,0%);fill-opacity:1;stroke-width:10;stroke-linecap:butt;stroke-linejoin:round;stroke:rgb(79.215688%,87.450981%,87.450981%);stroke-opacity:1;stroke-miterlimit:10;" d="M 123.729121 17.923224 L 151.461752 36.290155 C 153.670644 37.803246 154.97389 40.277204 154.97389 42.91683 L 154.97389 138.860027 C 154.97389 144.514789 150.556107 149.197639 144.912389 149.540017 L 51.597773 154.918667 C 50.890927 154.951801 50.261393 154.97389 49.664993 154.97389 C 44.926921 154.97389 42.408785 153.968844 39.724982 150.68864 L 20.805827 126.677991 C 17.415179 122.31543 16.034621 118.980004 16.034621 115.125489 L 16.034621 29.166481 C 16.034621 23.467541 19.127069 20.054804 24.737653 19.579892 C 24.737653 19.579892 109.702661 13.361863 111.204707 13.361863 C 116.616491 13.361863 119.300294 14.819731 123.729121 17.923224 Z M 27.068034 24.781831 C 26.029855 24.859142 25.643299 25.62121 25.52181 25.952544 C 25.400321 26.272833 25.212565 27.112212 25.941499 27.830101 L 39.493048 41.204939 C 43.943964 44.661854 46.594634 45.24721 50.824661 45.24721 L 50.835705 45.24721 C 52.790574 45.24721 143.984655 39.194848 143.984655 39.194848 C 144.304944 39.161714 144.503744 38.996047 144.581056 38.686803 C 144.669411 38.377558 144.581056 38.145624 144.315989 37.968913 L 120.713984 22.329962 C 116.572313 19.42527 115.026089 18.696336 111.23784 18.696336 C 109.227749 18.773647 27.068034 24.781831 27.068034 24.781831 Z M 121.365607 29.310059 L 121.707985 34.644531 C 121.807385 36.113444 120.680851 37.383557 119.211938 37.471912 C 119.156716 37.471912 119.090449 37.482957 119.035227 37.482957 C 117.643625 37.482957 116.472913 36.4006 116.373513 34.975865 L 116.031134 29.641392 C 115.942779 28.17248 117.058269 26.902367 118.527182 26.802967 C 120.040272 26.747745 121.266207 27.830101 121.365607 29.310059 Z M 108.697615 30.116304 L 109.051038 35.450777 C 109.139393 36.930734 108.023903 38.189802 106.55499 38.289202 C 106.488724 38.289202 106.433501 38.289202 106.378279 38.289202 C 104.975633 38.289202 103.804921 37.21789 103.716565 35.793155 L 103.363142 30.458682 C 103.274787 28.989769 104.390277 27.719657 105.85919 27.620257 C 107.350191 27.576079 108.609259 28.647391 108.697615 30.116304 Z M 96.040667 30.933594 L 96.383046 36.268066 C 96.471401 37.736979 95.355911 39.018136 93.886998 39.106492 C 93.831776 39.106492 93.765509 39.117536 93.710287 39.117536 C 92.318685 39.117536 91.136929 38.024135 91.048573 36.610445 L 90.706195 31.275972 C 90.617839 29.796015 91.733329 28.525902 93.202242 28.437547 C 94.66011 28.393369 95.941267 29.453637 96.040667 30.933594 Z M 83.372675 31.739839 L 83.715053 37.074312 C 83.803409 38.554269 82.687919 39.824382 81.219006 39.912737 C 81.163784 39.923782 81.108562 39.923782 81.053339 39.923782 C 79.650693 39.923782 78.479981 38.841425 78.391625 37.41669 L 78.038203 32.093262 C 77.949847 30.613305 79.065337 29.343192 80.53425 29.243792 C 81.992118 29.18857 83.28432 30.270926 83.372675 31.739839 Z M 70.715728 32.557129 L 71.058106 37.891602 C 71.146461 39.371559 70.030971 40.641671 68.562059 40.730027 C 68.506836 40.730027 68.44057 40.741072 68.385347 40.741072 C 66.993746 40.741072 65.811989 39.64767 65.723633 38.23398 L 65.381255 32.899507 C 65.292899 31.430594 66.408389 30.160482 67.877302 30.061082 C 69.335171 30.016904 70.616328 31.088216 70.715728 32.557129 Z M 58.047736 33.374419 L 58.390114 38.708891 C 58.478469 40.177804 57.362979 41.447917 55.894066 41.547317 C 55.838844 41.547317 55.783622 41.547317 55.7284 41.547317 C 54.325754 41.547317 53.143997 40.46496 53.055641 39.05127 L 52.713263 33.716797 C 52.624907 32.23684 53.740397 30.966727 55.20931 30.878372 C 56.678223 30.812105 57.95938 31.905506 58.047736 33.374419 Z M 21.777739 31.81715 C 21.512672 31.927595 21.380139 32.13744 21.380139 32.43564 L 21.380139 115.125489 C 21.380139 117.33438 21.987584 119.488049 25.00272 123.375698 L 38.885603 140.991607 C 39.283203 141.488608 40.078404 141.212496 40.078404 140.571918 L 40.078404 52.635952 C 40.078404 50.493327 39.216936 48.439058 37.692801 46.925967 L 22.517718 31.960728 C 22.407273 31.850284 22.296828 31.784017 22.175339 31.761928 C 22.05385 31.739839 21.921317 31.761928 21.777739 31.81715 Z M 50.261393 50.703172 C 46.241211 51.034505 45.423921 53.265486 45.423921 56.534645 L 45.423921 143.553921 C 45.423921 145.652368 45.954055 147.209636 46.992234 148.192593 C 47.986235 149.142416 49.554548 149.506883 51.697173 149.562106 L 144.5921 144.205544 C 147.408437 144.039877 149.628372 141.687408 149.628372 138.860027 L 149.628372 50.106771 C 149.628372 47.942057 149.120327 46.384789 148.126326 45.479144 C 147.585148 44.982143 146.591147 44.42992 144.934478 44.562454 Z M 134.696267 60.245582 C 135.767579 61.250628 136.36398 62.653274 136.36398 64.122187 C 136.36398 65.9887 136.36398 71.422573 131.405018 73.71982 L 131.405018 126.987236 C 131.405018 128.942105 130.333706 130.742351 128.599726 131.68113 C 124.314477 134.000466 120.725029 135.0276 116.958869 135.0276 C 111.226796 135.0276 107.637347 132.951242 104.158343 127.583636 C 101.231562 123.055409 94.880999 112.949731 89.358771 104.114165 L 89.358771 119.156716 L 92.52853 119.819383 C 95.112933 120.349517 96.913179 122.679898 96.780646 125.308478 C 96.614979 128.43406 93.986398 134.519555 85.161877 135.193267 C 79.473982 135.624001 67.468657 136.231446 66.960612 136.253535 C 66.872257 136.26458 66.783901 136.26458 66.695545 136.26458 C 65.326033 136.26458 64.011742 135.74549 63.017741 134.784622 C 61.957473 133.779577 61.361073 132.376931 61.361073 130.919062 C 61.361073 123.729121 66.551967 121.829474 68.153414 121.409785 C 68.319081 121.365607 68.528925 121.321429 68.782948 121.255163 L 68.782948 79.352493 L 66.70659 79.352493 C 63.746675 79.352493 61.361073 76.96689 61.361073 74.01802 C 61.361073 63.835031 68.650414 62.520741 70.980795 62.344029 L 90.209194 61.261673 C 90.308594 61.250628 90.407994 61.250628 90.518439 61.250628 C 92.318685 61.250628 94.008487 62.167318 95.002488 63.691453 L 110.84024 88.121792 L 110.84024 75.840356 L 108.311059 75.630511 C 105.5389 75.398577 103.40732 73.090286 103.40732 70.307083 C 103.40732 64.133231 108.730748 60.256627 113.733887 59.737537 C 113.811199 59.737537 113.899554 59.726493 113.98791 59.715449 L 130.720262 58.787714 C 130.819662 58.787714 130.919062 58.77667 131.018462 58.77667 C 132.387975 58.77667 133.702266 59.306804 134.696267 60.245582 Z M 114.275066 65.049921 C 111.723796 65.314988 108.752837 67.214635 108.752837 70.307083 L 116.174712 70.925572 L 116.174712 106.190523 L 90.507394 66.60719 L 71.278995 67.678502 C 67.678502 67.943569 66.695545 70.616328 66.695545 74.01802 L 74.11742 74.01802 L 74.11742 125.363701 C 74.11742 125.363701 70.649461 126.291435 69.489793 126.60068 C 67.015835 127.230214 66.695545 129.372838 66.695545 130.919062 C 66.695545 130.919062 79.065337 130.300573 84.764277 129.869839 C 91.225284 129.383883 91.435129 125.043411 91.435129 125.043411 L 84.013254 123.497187 L 84.013254 85.460078 C 84.013254 85.460078 102.877186 115.766067 108.653437 124.678944 C 111.359329 128.864793 113.391509 129.682083 116.958869 129.682083 C 119.88565 129.682083 122.657809 128.820616 126.059501 126.976191 L 126.059501 69.721727 C 126.059501 69.721727 126.689035 69.688593 128.665993 69.059059 C 130.919062 68.330125 131.018462 66.2869 131.018462 64.122187 Z M 114.275066 65.049921 " transform="matrix(0.353684,0,0,0.353684,1.770214,1.770214)"/>
<path style=" stroke:none;fill-rule:nonzero;fill:rgb(0%,0%,0%);fill-opacity:1;" d="M 41.101562 6.496094 C 40.570312 6.496094 10.519531 8.695312 10.519531 8.695312 C 8.535156 8.863281 7.441406 10.070312 7.441406 12.085938 L 7.441406 42.488281 C 7.441406 43.851562 7.929688 45.03125 9.128906 46.574219 L 15.820312 55.066406 C 16.769531 56.226562 17.660156 56.582031 19.335938 56.582031 C 19.546875 56.582031 19.769531 56.574219 20.019531 56.5625 L 53.023438 54.660156 C 55.019531 54.539062 56.582031 52.882812 56.582031 50.882812 L 56.582031 16.949219 C 56.582031 16.015625 56.121094 15.140625 55.339844 14.605469 L 45.53125 8.109375 C 43.964844 7.011719 43.015625 6.496094 41.101562 6.496094 Z M 41.113281 8.382812 C 42.453125 8.382812 43 8.640625 44.464844 9.667969 L 52.8125 15.199219 C 52.90625 15.261719 52.9375 15.34375 52.90625 15.453125 C 52.878906 15.5625 52.808594 15.621094 52.695312 15.632812 C 52.695312 15.632812 20.441406 17.773438 19.75 17.773438 L 19.746094 17.773438 C 18.25 17.773438 17.3125 17.566406 15.738281 16.34375 L 10.945312 11.613281 C 10.6875 11.359375 10.753906 11.0625 10.796875 10.949219 C 10.839844 10.832031 10.976562 10.5625 11.34375 10.535156 C 11.34375 10.535156 40.402344 8.410156 41.113281 8.382812 Z M 43.691406 11.25 C 43.171875 11.285156 42.777344 11.734375 42.808594 12.253906 L 42.929688 14.140625 C 42.964844 14.644531 43.378906 15.027344 43.871094 15.027344 C 43.890625 15.027344 43.914062 15.023438 43.933594 15.023438 C 44.453125 14.992188 44.851562 14.542969 44.816406 14.023438 L 44.695312 12.136719 C 44.660156 11.613281 44.226562 11.230469 43.691406 11.25 Z M 39.210938 11.539062 C 38.691406 11.574219 38.296875 12.023438 38.328125 12.542969 L 38.453125 14.429688 C 38.484375 14.933594 38.898438 15.3125 39.394531 15.3125 C 39.414062 15.3125 39.433594 15.3125 39.457031 15.3125 C 39.976562 15.277344 40.371094 14.832031 40.339844 14.308594 L 40.214844 12.421875 C 40.183594 11.902344 39.738281 11.523438 39.210938 11.539062 Z M 34.734375 11.828125 C 34.214844 11.859375 33.820312 12.308594 33.851562 12.832031 L 33.972656 14.71875 C 34.003906 15.21875 34.421875 15.605469 34.914062 15.605469 C 34.933594 15.605469 34.957031 15.601562 34.976562 15.601562 C 35.496094 15.570312 35.890625 15.117188 35.859375 14.597656 L 35.738281 12.710938 C 35.703125 12.1875 35.25 11.8125 34.734375 11.828125 Z M 30.253906 12.113281 C 29.734375 12.148438 29.339844 12.597656 29.371094 13.121094 L 29.496094 15.003906 C 29.527344 15.507812 29.941406 15.890625 30.4375 15.890625 C 30.457031 15.890625 30.476562 15.890625 30.496094 15.886719 C 31.015625 15.855469 31.410156 15.40625 31.378906 14.882812 L 31.257812 12.996094 C 31.226562 12.476562 30.769531 12.09375 30.253906 12.113281 Z M 25.777344 12.402344 C 25.257812 12.4375 24.863281 12.886719 24.894531 13.40625 L 25.015625 15.292969 C 25.046875 15.792969 25.464844 16.179688 25.957031 16.179688 C 25.976562 16.179688 26 16.175781 26.019531 16.175781 C 26.539062 16.144531 26.933594 15.695312 26.902344 15.171875 L 26.78125 13.285156 C 26.746094 12.765625 26.292969 12.386719 25.777344 12.402344 Z M 21.296875 12.691406 C 20.777344 12.722656 20.382812 13.171875 20.414062 13.695312 L 20.535156 15.582031 C 20.566406 16.082031 20.984375 16.464844 21.480469 16.464844 C 21.5 16.464844 21.519531 16.464844 21.539062 16.464844 C 22.058594 16.429688 22.453125 15.980469 22.421875 15.460938 L 22.300781 13.574219 C 22.269531 13.054688 21.816406 12.667969 21.296875 12.691406 Z M 9.613281 13.003906 C 9.65625 13.011719 9.695312 13.035156 9.734375 13.074219 L 15.101562 18.367188 C 15.640625 18.902344 15.945312 19.628906 15.945312 20.386719 L 15.945312 51.488281 C 15.945312 51.714844 15.664062 51.8125 15.523438 51.636719 L 10.613281 45.40625 C 9.546875 44.03125 9.332031 43.269531 9.332031 42.488281 L 9.332031 13.242188 C 9.332031 13.136719 9.378906 13.0625 9.472656 13.023438 C 9.523438 13.003906 9.570312 12.996094 9.613281 13.003906 Z M 53.03125 17.53125 C 53.617188 17.484375 53.96875 17.679688 54.160156 17.855469 C 54.511719 18.175781 54.691406 18.726562 54.691406 19.492188 L 54.691406 50.882812 C 54.691406 51.882812 53.90625 52.714844 52.910156 52.773438 L 20.054688 54.667969 C 19.296875 54.648438 18.742188 54.519531 18.390625 54.183594 C 18.023438 53.835938 17.835938 53.285156 17.835938 52.542969 L 17.835938 21.765625 C 17.835938 20.609375 18.125 19.820312 19.546875 19.703125 Z M 48.109375 22.558594 C 48.074219 22.558594 48.039062 22.5625 48.003906 22.5625 L 42.085938 22.890625 C 42.054688 22.894531 42.023438 22.898438 41.996094 22.898438 C 40.226562 23.082031 38.34375 24.453125 38.34375 26.636719 C 38.34375 27.621094 39.097656 28.4375 40.078125 28.519531 L 40.972656 28.59375 L 40.972656 32.9375 L 35.371094 24.296875 C 35.019531 23.757812 34.421875 23.433594 33.785156 23.433594 C 33.746094 23.433594 33.710938 23.433594 33.675781 23.4375 L 26.875 23.820312 C 26.050781 23.882812 23.472656 24.347656 23.472656 27.949219 C 23.472656 28.992188 24.316406 29.835938 25.363281 29.835938 L 26.097656 29.835938 L 26.097656 44.65625 C 26.007812 44.679688 25.933594 44.695312 25.875 44.710938 C 25.308594 44.859375 23.472656 45.53125 23.472656 48.074219 C 23.472656 48.589844 23.683594 49.085938 24.058594 49.441406 C 24.410156 49.78125 24.875 49.964844 25.359375 49.964844 C 25.390625 49.964844 25.421875 49.964844 25.453125 49.960938 C 25.632812 49.953125 29.878906 49.738281 31.890625 49.585938 C 35.011719 49.347656 35.941406 47.195312 36 46.089844 C 36.046875 45.160156 35.410156 44.335938 34.496094 44.148438 L 33.375 43.914062 L 33.375 38.59375 C 35.328125 41.71875 37.574219 45.292969 38.609375 46.894531 C 39.839844 48.792969 41.109375 49.527344 43.136719 49.527344 C 44.46875 49.527344 45.738281 49.164062 47.253906 48.34375 C 47.867188 48.011719 48.246094 47.375 48.246094 46.683594 L 48.246094 27.84375 C 50 27.03125 50 25.109375 50 24.449219 C 50 23.929688 49.789062 23.433594 49.410156 23.078125 C 49.058594 22.746094 48.59375 22.558594 48.109375 22.558594 Z M 48.109375 24.449219 C 48.109375 25.214844 48.074219 25.9375 47.277344 26.195312 C 46.578125 26.417969 46.355469 26.429688 46.355469 26.429688 L 46.355469 46.679688 C 45.152344 47.332031 44.171875 47.636719 43.136719 47.636719 C 41.875 47.636719 41.15625 47.347656 40.199219 45.867188 C 38.15625 42.714844 31.484375 31.996094 31.484375 31.996094 L 31.484375 45.449219 L 34.109375 45.996094 C 34.109375 45.996094 34.035156 47.53125 31.75 47.703125 C 29.734375 47.855469 25.359375 48.074219 25.359375 48.074219 C 25.359375 47.527344 25.472656 46.769531 26.347656 46.546875 C 26.757812 46.4375 27.984375 46.109375 27.984375 46.109375 L 27.984375 27.949219 L 25.359375 27.949219 C 25.359375 26.746094 25.707031 25.800781 26.980469 25.710938 L 33.78125 25.328125 L 42.859375 39.328125 L 42.859375 26.855469 L 40.234375 26.636719 C 40.234375 25.542969 41.285156 24.871094 42.1875 24.777344 Z M 48.109375 24.449219 "/>
</g>
</svg>
